<svg width="142" height="141" viewBox="0 0 142 141" fill="none" xmlns="http://www.w3.org/2000/svg">
<path d="M5.60975 97.0711C5.60975 84.8483 15.6797 71.4399 34.4701 71.4399C43.5807 71.4399 51.4978 75.5584 58.6895 80.9639C64.5708 73.0858 70.4443 64.3886 76.4347 56.1595C65.6472 50.988 57.9719 41.9321 57.9719 34.639C57.9719 30.0526 61.9266 26.8779 63.6036 26.8779C65.0466 26.8779 65.5224 29.5846 66.6066 31.6984C70.2025 38.8745 76.4347 43.9289 83.5094 47.1036C94.0629 34.288 105.35 24.6471 118.61 24.6471C120.725 24.616 122.832 24.9241 124.85 25.5597C114.044 12.5018 98.8959 3.77281 82.1797 0.970612C65.4635 -1.83158 48.2972 1.48051 33.8234 10.3006C19.3497 19.1207 8.53677 32.8586 3.36418 48.9995C-1.80842 65.1404 -0.994611 82.6044 5.6566 98.1943C5.641 97.8043 5.60975 97.4143 5.60975 97.0711Z" fill="#FF6700"/>
<path d="M96.8477 50.6137C98.5562 50.8493 100.279 50.9692 102.004 50.9725C116.995 50.9725 124.429 42.8525 124.429 36.8621C124.429 33.2116 122.026 30.3958 117.955 30.3958C110.997 30.4114 104.281 38.9135 96.8477 50.6137Z" fill="#FF6700"/>
<path d="M132.494 36.7997C131.636 47.2362 118.657 60.3872 94.57 60.3872C93.2518 60.3872 92.0506 60.3872 90.8571 60.2702C84.8589 70.2621 78.2678 81.3305 70.7095 91.0806C79.703 99.1927 87.8697 106.681 96.6136 106.681C101.044 106.681 104.047 103.264 104.523 103.264C105.124 103.264 105.482 103.506 105.482 104.091C105.482 104.793 93.9694 121.142 83.4236 121.142C75.3895 121.142 67.7142 112.671 59.5631 103.506C50.6866 111.735 40.4997 117.258 28.7449 117.258C23.1288 117.258 18.6048 115.994 15.0402 113.912C25.9517 127.816 41.6871 137.116 59.1302 139.969C76.5732 142.822 94.4517 139.02 109.225 129.316C123.997 119.613 134.587 104.715 138.897 87.5733C143.206 70.4319 140.921 52.2971 132.494 36.7607V36.7997Z" fill="#FF6700"/>
<path d="M13.1603 94.4893C13.1603 100.956 17.8403 105.893 26.2333 105.893C34.3844 105.893 41.9349 100.48 49.3684 92.4924C42.7773 86.1431 35.8195 81.3227 28.0272 81.3227C19.1975 81.3227 13.1603 87.5472 13.1603 94.4893Z" fill="#FF6700"/>
</svg>
