<svg width="328" height="58" viewBox="0 0 328 58" fill="none" xmlns="http://www.w3.org/2000/svg">
<rect width="328" height="58" rx="29" fill="#FF6700"/>
<path d="M144.392 30.928V35H142.24V23.432H146.008C146.781 23.432 147.451 23.5227 148.016 23.704C148.581 23.8853 149.048 24.1387 149.416 24.464C149.784 24.7893 150.056 25.1787 150.232 25.632C150.408 26.0853 150.496 26.5813 150.496 27.12C150.496 27.68 150.403 28.1947 150.216 28.664C150.029 29.128 149.749 29.528 149.376 29.864C149.003 30.2 148.536 30.4613 147.976 30.648C147.416 30.8347 146.76 30.928 146.008 30.928H144.392ZM144.392 29.248H146.008C146.403 29.248 146.747 29.2 147.04 29.104C147.333 29.0027 147.576 28.8613 147.768 28.68C147.96 28.4933 148.104 28.2693 148.2 28.008C148.296 27.7413 148.344 27.4453 148.344 27.12C148.344 26.8107 148.296 26.5307 148.2 26.28C148.104 26.0293 147.96 25.816 147.768 25.64C147.576 25.464 147.333 25.3307 147.04 25.24C146.747 25.144 146.403 25.096 146.008 25.096H144.392V29.248ZM153.864 26.792V32.008C153.864 32.5093 153.979 32.8987 154.208 33.176C154.443 33.448 154.792 33.584 155.256 33.584C155.597 33.584 155.917 33.5093 156.216 33.36C156.515 33.2053 156.797 32.9947 157.064 32.728V26.792H159.04V35H157.832C157.576 35 157.408 34.88 157.328 34.64L157.192 33.984C157.021 34.1547 156.845 34.312 156.664 34.456C156.483 34.5947 156.288 34.7147 156.08 34.816C155.877 34.912 155.656 34.9867 155.416 35.04C155.181 35.0987 154.928 35.128 154.656 35.128C154.208 35.128 153.811 35.0533 153.464 34.904C153.123 34.7493 152.835 34.5333 152.6 34.256C152.365 33.9787 152.187 33.6507 152.064 33.272C151.947 32.888 151.888 32.4667 151.888 32.008V26.792H153.864ZM161.174 35V23.112H163.15V27.8C163.475 27.4533 163.843 27.1787 164.254 26.976C164.664 26.768 165.144 26.664 165.694 26.664C166.142 26.664 166.55 26.7573 166.918 26.944C167.291 27.1253 167.611 27.392 167.878 27.744C168.15 28.096 168.358 28.5307 168.502 29.048C168.651 29.5653 168.726 30.16 168.726 30.832C168.726 31.4453 168.643 32.0133 168.478 32.536C168.312 33.0587 168.075 33.512 167.766 33.896C167.462 34.28 167.091 34.5813 166.654 34.8C166.222 35.0133 165.736 35.12 165.198 35.12C164.947 35.12 164.718 35.0933 164.51 35.04C164.302 34.992 164.112 34.9227 163.942 34.832C163.771 34.7413 163.611 34.632 163.462 34.504C163.318 34.3707 163.179 34.224 163.046 34.064L162.958 34.616C162.926 34.7547 162.87 34.8533 162.79 34.912C162.715 34.9707 162.611 35 162.478 35H161.174ZM165.014 28.2C164.603 28.2 164.251 28.288 163.958 28.464C163.67 28.6347 163.4 28.8773 163.15 29.192V32.872C163.374 33.1493 163.616 33.344 163.878 33.456C164.144 33.5627 164.432 33.616 164.742 33.616C165.04 33.616 165.31 33.56 165.55 33.448C165.79 33.336 165.992 33.1653 166.158 32.936C166.328 32.7067 166.459 32.4187 166.55 32.072C166.64 31.72 166.686 31.3067 166.686 30.832C166.686 30.352 166.646 29.9467 166.566 29.616C166.491 29.28 166.382 29.008 166.238 28.8C166.094 28.592 165.918 28.44 165.71 28.344C165.507 28.248 165.275 28.2 165.014 28.2ZM172.379 23.112V35H170.403V23.112H172.379ZM176.723 26.792V35H174.747V26.792H176.723ZM177.019 24.4C177.019 24.5707 176.984 24.7307 176.915 24.88C176.845 25.0293 176.752 25.16 176.635 25.272C176.523 25.384 176.389 25.4747 176.235 25.544C176.08 25.608 175.915 25.64 175.739 25.64C175.568 25.64 175.405 25.608 175.251 25.544C175.101 25.4747 174.971 25.384 174.859 25.272C174.747 25.16 174.656 25.0293 174.587 24.88C174.523 24.7307 174.491 24.5707 174.491 24.4C174.491 24.224 174.523 24.0587 174.587 23.904C174.656 23.7493 174.747 23.616 174.859 23.504C174.971 23.392 175.101 23.304 175.251 23.24C175.405 23.1707 175.568 23.136 175.739 23.136C175.915 23.136 176.08 23.1707 176.235 23.24C176.389 23.304 176.523 23.392 176.635 23.504C176.752 23.616 176.845 23.7493 176.915 23.904C176.984 24.0587 177.019 24.224 177.019 24.4ZM183.834 28.392C183.781 28.4773 183.725 28.5387 183.666 28.576C183.608 28.608 183.533 28.624 183.442 28.624C183.346 28.624 183.242 28.5973 183.13 28.544C183.024 28.4907 182.898 28.432 182.754 28.368C182.61 28.2987 182.445 28.2373 182.258 28.184C182.077 28.1307 181.861 28.104 181.61 28.104C181.221 28.104 180.914 28.1867 180.69 28.352C180.466 28.5173 180.354 28.7333 180.354 29C180.354 29.176 180.41 29.3253 180.522 29.448C180.64 29.5653 180.792 29.6693 180.978 29.76C181.17 29.8507 181.386 29.9333 181.626 30.008C181.866 30.0773 182.112 30.1547 182.362 30.24C182.613 30.3253 182.858 30.424 183.098 30.536C183.338 30.6427 183.552 30.7813 183.738 30.952C183.93 31.1173 184.082 31.3173 184.194 31.552C184.312 31.7867 184.37 32.0693 184.37 32.4C184.37 32.7947 184.298 33.16 184.154 33.496C184.01 33.8267 183.8 34.1147 183.522 34.36C183.245 34.6 182.901 34.7893 182.49 34.928C182.085 35.0613 181.618 35.128 181.09 35.128C180.808 35.128 180.53 35.1013 180.258 35.048C179.992 35 179.733 34.9307 179.482 34.84C179.237 34.7493 179.008 34.6427 178.794 34.52C178.586 34.3973 178.402 34.264 178.242 34.12L178.698 33.368C178.757 33.2773 178.826 33.208 178.906 33.16C178.986 33.112 179.088 33.088 179.21 33.088C179.333 33.088 179.448 33.1227 179.554 33.192C179.666 33.2613 179.794 33.336 179.938 33.416C180.082 33.496 180.25 33.5707 180.442 33.64C180.64 33.7093 180.888 33.744 181.186 33.744C181.421 33.744 181.621 33.7173 181.786 33.664C181.957 33.6053 182.096 33.5307 182.202 33.44C182.314 33.3493 182.394 33.2453 182.442 33.128C182.496 33.0053 182.522 32.88 182.522 32.752C182.522 32.56 182.464 32.4027 182.346 32.28C182.234 32.1573 182.082 32.0507 181.89 31.96C181.704 31.8693 181.488 31.7893 181.242 31.72C181.002 31.6453 180.754 31.5653 180.498 31.48C180.248 31.3947 180 31.296 179.754 31.184C179.514 31.0667 179.298 30.92 179.106 30.744C178.92 30.568 178.768 30.352 178.65 30.096C178.538 29.84 178.482 29.5307 178.482 29.168C178.482 28.832 178.549 28.512 178.682 28.208C178.816 27.904 179.01 27.64 179.266 27.416C179.528 27.1867 179.85 27.0053 180.234 26.872C180.624 26.7333 181.072 26.664 181.578 26.664C182.144 26.664 182.658 26.7573 183.122 26.944C183.586 27.1307 183.973 27.376 184.282 27.68L183.834 28.392ZM185.947 35V23.112H187.923V27.68C188.243 27.376 188.595 27.1307 188.979 26.944C189.363 26.7573 189.813 26.664 190.331 26.664C190.779 26.664 191.176 26.7413 191.523 26.896C191.869 27.0453 192.157 27.2587 192.387 27.536C192.621 27.808 192.797 28.136 192.915 28.52C193.037 28.8987 193.099 29.3173 193.099 29.776V35H191.123V29.776C191.123 29.2747 191.005 28.888 190.771 28.616C190.541 28.3387 190.195 28.2 189.731 28.2C189.389 28.2 189.069 28.2773 188.771 28.432C188.472 28.5867 188.189 28.7973 187.923 29.064V35H185.947Z" fill="white"/>
</svg>
