<svg width="24" height="25" viewBox="0 0 24 25" fill="none" xmlns="http://www.w3.org/2000/svg">
<path d="M12 16.5L12 8.5" stroke="#190A00" stroke-width="2" stroke-linecap="round" stroke-linejoin="round"/>
<path d="M21 14L21 11" stroke="#190A00" stroke-width="2" stroke-linecap="round" stroke-linejoin="round"/>
<path d="M3 14L3 11" stroke="#190A00" stroke-width="2" stroke-linecap="round" stroke-linejoin="round"/>
<path d="M7 3.5H5C3.89543 3.5 3 4.39543 3 5.5V7.5" stroke="#190A00" stroke-width="2" stroke-linecap="round" stroke-linejoin="round"/>
<path d="M17 3.5H19C20.1046 3.5 21 4.39543 21 5.5V7.5" stroke="#190A00" stroke-width="2" stroke-linecap="round" stroke-linejoin="round"/>
<path d="M17 21.5H19C20.1046 21.5 21 20.6046 21 19.5V17.5" stroke="#190A00" stroke-width="2" stroke-linecap="round" stroke-linejoin="round"/>
<path d="M7 21.5H5C3.89543 21.5 3 20.6046 3 19.5V17.5" stroke="#190A00" stroke-width="2" stroke-linecap="round" stroke-linejoin="round"/>
<path d="M13.5 3.5H10.5" stroke="#190A00" stroke-width="2" stroke-linecap="round" stroke-linejoin="round"/>
<path d="M16 12.5L8 12.5" stroke="#190A00" stroke-width="2" stroke-linecap="round" stroke-linejoin="round"/>
<path d="M13.5 21.5H10.5" stroke="#190A00" stroke-width="2" stroke-linecap="round" stroke-linejoin="round"/>
</svg>
