<svg width="14" height="18" viewBox="0 0 14 18" fill="none" xmlns="http://www.w3.org/2000/svg">
<path d="M7 10.1081C8.24264 10.1081 9.25 9.10129 9.25 7.8593C9.25 6.61731 8.24264 5.61047 7 5.61047C5.75736 5.61047 4.75 6.61731 4.75 7.8593C4.75 9.10129 5.75736 10.1081 7 10.1081Z" stroke="#FF6700" stroke-width="2" stroke-linecap="round" stroke-linejoin="round"/>
<path d="M7 1.86243C5.4087 1.86243 3.88258 2.49424 2.75736 3.61887C1.63214 4.7435 1 6.26882 1 7.85929C1 9.27755 1.3015 10.2056 2.125 11.2325L7 16.8546L11.875 11.2325C12.6985 10.2056 13 9.27755 13 7.85929C13 6.26882 12.3679 4.7435 11.2426 3.61887C10.1174 2.49424 8.5913 1.86243 7 1.86243V1.86243Z" stroke="#FF6700" stroke-width="2" stroke-linecap="round" stroke-linejoin="round"/>
</svg>
