<svg width="19" height="19" viewBox="0 0 19 19" fill="none" xmlns="http://www.w3.org/2000/svg">
<path d="M0 18.3215H3.75L14.81 7.2673L11.06 3.51927L0 14.5735V18.3215ZM2 15.403L11.06 6.34779L11.98 7.2673L2.92 16.3226H2V15.403ZM15.37 0.620782C15.2775 0.528127 15.1676 0.454618 15.0466 0.404463C14.9257 0.354308 14.796 0.328491 14.665 0.328491C14.534 0.328491 14.4043 0.354308 14.2834 0.404463C14.1624 0.454618 14.0525 0.528127 13.96 0.620782L12.13 2.44983L15.88 6.19786L17.71 4.36882C17.8027 4.27636 17.8762 4.16652 17.9264 4.04561C17.9766 3.9247 18.0024 3.79509 18.0024 3.66419C18.0024 3.53329 17.9766 3.40368 17.9264 3.28277C17.8762 3.16186 17.8027 3.05202 17.71 2.95956L15.37 0.620782Z" fill="#FF6700"/>
</svg>
