<svg width="75" height="75" viewBox="0 0 75 75" fill="none" xmlns="http://www.w3.org/2000/svg">
<rect x="1.5" y="1.5" width="72" height="72" rx="13.5" fill="white" stroke="#DFDFDF" stroke-width="3"/>
<path d="M58 38C58 37.4696 57.7893 36.9609 57.4142 36.5858C57.0391 36.2107 56.5304 36 56 36C55.4696 36 54.9609 36.2107 54.5858 36.5858C54.2107 36.9609 54 37.4696 54 38H58ZM38 22C38.5304 22 39.0391 21.7893 39.4142 21.4142C39.7893 21.0391 40 20.5304 40 20C40 19.4696 39.7893 18.9609 39.4142 18.5858C39.0391 18.2107 38.5304 18 38 18V22ZM53 54H23V58H53V54ZM22 53V23H18V53H22ZM54 38V53H58V38H54ZM23 22H38V18H23V22ZM23 54C22.7348 54 22.4804 53.8946 22.2929 53.7071C22.1054 53.5196 22 53.2652 22 53H18C18 54.3261 18.5268 55.5979 19.4645 56.5355C20.4021 57.4732 21.6739 58 23 58V54ZM53 58C54.3261 58 55.5979 57.4732 56.5355 56.5355C57.4732 55.5979 58 54.3261 58 53H54C54 53.2652 53.8946 53.5196 53.7071 53.7071C53.5196 53.8946 53.2652 54 53 54V58ZM22 23C22 22.7348 22.1054 22.4804 22.2929 22.2929C22.4804 22.1054 22.7348 22 23 22V18C21.6739 18 20.4021 18.5268 19.4645 19.4645C18.5268 20.4021 18 21.6739 18 23H22Z" fill="#FF6700"/>
<path d="M50 20V32M20 49L30.693 39.198C31.0534 38.8677 31.5223 38.6808 32.0112 38.6727C32.5 38.6646 32.9748 38.8358 33.346 39.154L46 50L20 49ZM42 45L46.773 40.227C47.1134 39.8863 47.5654 39.68 48.0458 39.6458C48.5262 39.6116 49.0028 39.752 49.388 40.041L56 45H42ZM44 26H56H44Z" stroke="#FF6700" stroke-width="4" stroke-linecap="round" stroke-linejoin="round"/>
</svg>
