<svg width="23" height="23" viewBox="0 0 23 23" fill="none" xmlns="http://www.w3.org/2000/svg">
<path d="M11.4912 7.17468C10.6754 7.17468 9.87784 7.41727 9.19949 7.87177C8.52113 8.32627 7.99242 8.97226 7.68021 9.72806C7.368 10.4839 7.28631 11.3155 7.44547 12.1179C7.60464 12.9202 7.99751 13.6573 8.5744 14.2357C9.15129 14.8142 9.88629 15.2081 10.6865 15.3677C11.4866 15.5273 12.316 15.4454 13.0698 15.1323C13.8235 14.8193 14.4678 14.2891 14.921 13.6089C15.3743 12.9287 15.6162 12.129 15.6162 11.3109C15.615 10.2143 15.18 9.16297 14.4067 8.38754C13.6333 7.61211 12.5849 7.17593 11.4912 7.17468ZM11.4912 13.9431C10.972 13.9431 10.4645 13.7887 10.0328 13.4995C9.60116 13.2103 9.26471 12.7992 9.06603 12.3182C8.86735 11.8373 8.81537 11.308 8.91665 10.7974C9.01794 10.2868 9.26795 9.81784 9.63506 9.44972C10.0022 9.08161 10.4699 8.83092 10.9791 8.72935C11.4883 8.62779 12.0161 8.67992 12.4958 8.87914C12.9754 9.07836 13.3854 9.41573 13.6738 9.84859C13.9623 10.2814 14.1162 10.7903 14.1162 11.3109C14.1154 12.0088 13.8386 12.6778 13.3465 13.1713C12.8544 13.6648 12.1872 13.9423 11.4912 13.9431Z" fill="#FF6700"/>
<path d="M21.7827 14.5535L20.2935 13.3242C20.5575 12.0795 20.5575 10.7931 20.2935 9.54837L21.7827 8.3191C21.9545 8.17799 22.0705 7.98018 22.1101 7.76109C22.1497 7.54199 22.1102 7.31594 21.9986 7.12339L20.47 4.46853C20.3594 4.27536 20.1839 4.12797 19.9749 4.05277C19.7658 3.97758 19.5369 3.9795 19.3292 4.05819L17.5216 4.73724C16.58 3.88417 15.4691 3.24038 14.2619 2.8481L13.9448 0.941143C13.9089 0.721372 13.7961 0.521609 13.6266 0.377657C13.4572 0.233705 13.2421 0.154976 13.02 0.155582H9.96274C9.74066 0.154984 9.52562 0.233709 9.35616 0.37765C9.18671 0.521591 9.07391 0.721338 9.03799 0.941096L8.72102 2.8481C7.5138 3.24037 6.40294 3.88417 5.46133 4.73724L3.6536 4.0581C3.44585 3.97946 3.21696 3.97757 3.00794 4.05277C2.79893 4.12797 2.62345 4.27534 2.51294 4.46848L0.984302 7.12354C0.872815 7.31609 0.833334 7.54215 0.872929 7.76124C0.912525 7.98032 1.02861 8.17812 1.2004 8.3192L2.68947 9.54837C2.42547 10.7931 2.42547 12.0795 2.68947 13.3242L1.20025 14.5535C1.0285 14.6946 0.912443 14.8924 0.872874 15.1115C0.833305 15.3306 0.872805 15.5566 0.984302 15.7492L2.51299 18.4041C2.62351 18.5972 2.79901 18.7446 3.00806 18.8198C3.2171 18.895 3.44602 18.8931 3.65379 18.8144L5.46138 18.1353C6.40299 18.9884 7.51385 19.6322 8.72107 20.0245L9.03804 21.9314C9.07395 22.1512 9.18673 22.351 9.35618 22.4949C9.52563 22.6389 9.74066 22.7176 9.96274 22.717H13.02C13.2421 22.7176 13.4571 22.6389 13.6266 22.4949C13.7961 22.351 13.9089 22.1513 13.9448 21.9315L14.2618 20.0245C15.469 19.6322 16.5799 18.9884 17.5215 18.1353L19.3292 18.8145C19.5369 18.8931 19.7658 18.895 19.9748 18.8198C20.1838 18.7446 20.3593 18.5972 20.4698 18.4041L21.9984 15.749C22.1099 15.5566 22.1494 15.3305 22.1099 15.1115C22.0704 14.8924 21.9544 14.6946 21.7827 14.5535ZM19.4092 17.2383L17.1541 16.3911L16.8126 16.7358C15.873 17.6854 14.6979 18.3664 13.4083 18.7087L12.9395 18.8326L12.5437 21.2129H10.4395L10.0437 18.8326L9.57499 18.7087C8.28541 18.3664 7.11023 17.6854 6.17069 16.7358L5.82921 16.3911L3.57372 17.2383L2.5218 15.411L4.37941 13.8775L4.25285 13.4088C3.90479 12.1169 3.90479 10.7556 4.25285 9.46381L4.37941 8.9951L2.5218 7.46168L3.57396 5.63429L5.82907 6.48148L6.17055 6.13676C7.11009 5.18718 8.28526 4.50615 9.57485 4.1639L10.0436 4.04L10.4393 1.65968H12.5437L12.9394 4.04L13.4081 4.1639C14.6977 4.50615 15.8729 5.18718 16.8124 6.13676L17.1539 6.48148L19.409 5.63429L20.4612 7.46163L18.6036 8.9951L18.7302 9.46381C19.0782 10.7556 19.0782 12.1169 18.7302 13.4088L18.6036 13.8775L20.4612 15.4109L19.4092 17.2383Z" fill="#FF6700"/>
</svg>
